<svg xmlns="http://www.w3.org/2000/svg" width="49.5" height="33" viewBox="0 0 49.5 33">
  <g id="svg-payout" transform="translate(0 -5)" opacity="0.5">
    <path id="Path_13" data-name="Path 13" d="M19.8,5a3.3,3.3,0,0,0-3.3,3.3h33A3.3,3.3,0,0,0,46.2,5ZM16.5,8.3h-.464c-2.933,0-6.632.277-9.127,2.462C4.969,12.457,0,16.672,0,16.672v4.235s7.1-5.93,9.075-7.657c1.818-1.586,5.15-1.65,6.961-1.65H16.5Zm0,3.3V24.233l9.629-5.414.006.006a3.294,3.294,0,1,1,3.751,5.414L24.879,28.1l-5.9,4.538A9.9,9.9,0,0,1,12.942,34.7H0V38H12.942a13.266,13.266,0,0,0,8.05-2.746L30.287,28.1H46.2a3.3,3.3,0,0,0,3.3-3.3V11.6Z" fill="#5b5b5b"/>
  </g>
</svg>
