<svg xmlns="http://www.w3.org/2000/svg" width="46.979" height="44" viewBox="0 0 46.979 44">
  <g id="surface1" transform="translate(-2.188 -3)" opacity="0.5">
    <path id="Path_8" data-name="Path 8" d="M25.677,3A21.976,21.976,0,0,0,6.656,14h4.383a18.346,18.346,0,0,1,7.419-5.844A24.263,24.263,0,0,0,16.081,14h3.86c1.447-4.512,3.66-7.333,5.736-7.333S29.967,9.488,31.413,14h3.86A24.265,24.265,0,0,0,32.9,8.156,18.368,18.368,0,0,1,40.322,14H44.7A21.985,21.985,0,0,0,25.677,3ZM2.188,19.5l2.872,11H7.695l1.812-6.739h.129L11.476,30.5H14.1l2.872-11H14.09L12.65,26.8h-.136l-1.826-7.3H8.447L6.685,26.8H6.549L5.088,19.5Zm16.1,0,2.865,11h2.643l1.8-6.739h.136l1.84,6.739H30.2l2.865-11H30.2l-1.447,7.3h-.136l-1.819-7.3H24.553l-1.769,7.3h-.136l-1.461-7.3Zm16.1,0,2.872,11h2.635l1.8-6.739h.136l1.84,6.739h2.621l2.872-11H46.288l-1.44,7.3h-.136l-1.819-7.3H40.652l-1.769,7.3h-.136l-1.461-7.3ZM6.656,36A21.945,21.945,0,0,0,44.7,36H40.322A18.368,18.368,0,0,1,32.9,41.844,23.976,23.976,0,0,0,35.273,36h-3.86c-1.447,4.512-3.66,7.333-5.736,7.333S21.395,40.512,19.948,36H16.081a24.261,24.261,0,0,0,2.378,5.844A18.346,18.346,0,0,1,11.039,36Z" transform="translate(0 0)" fill="#5b5b5b"/>
  </g>
</svg>
