<svg xmlns="http://www.w3.org/2000/svg" width="57" height="57" viewBox="0 0 57 57">
  <g id="surface1" transform="translate(-3)" opacity="0.5">
    <path id="Path_6" data-name="Path 6" d="M47.333,0A12.67,12.67,0,0,0,34.667,12.667c0,10.119,10.556,12.667,10.556,16.889a2.111,2.111,0,0,0,4.222,0C49.444,25.333,60,22.785,60,12.667A12.67,12.67,0,0,0,47.333,0Zm-19,6.333A25.333,25.333,0,1,0,53.667,31.667c0-.453-.041-.9-.066-1.352a6.323,6.323,0,0,1-4.544,5.311A22.725,22.725,0,0,1,48.471,38H40.612A51.83,51.83,0,0,0,41,31.667c0-.594-.033-1.155-.058-1.74A22.9,22.9,0,0,0,38.864,28c-.759-.651-1.608-1.4-2.474-2.235a46.3,46.3,0,0,1,.388,5.9A45.334,45.334,0,0,1,36.349,38H20.318a46.623,46.623,0,0,1-.429-6.333,45.335,45.335,0,0,1,.429-6.333H35.961A20.745,20.745,0,0,1,32.7,21.111H21.126c1.6-6.416,4.511-10.556,7.208-10.556a3.666,3.666,0,0,1,2.177.866A16.986,16.986,0,0,1,31.6,6.564,26.583,26.583,0,0,0,28.333,6.333Zm19,2.111a4.222,4.222,0,1,1-4.222,4.222A4.22,4.22,0,0,1,47.333,8.444ZM20.021,12.271a30.107,30.107,0,0,0-3.274,8.84H10.076A21.207,21.207,0,0,1,20.021,12.271ZM8.2,25.333h7.851a53.058,53.058,0,0,0,0,12.667H8.2a21.1,21.1,0,0,1,0-12.667Zm1.88,16.889h6.671a30.107,30.107,0,0,0,3.274,8.84A21.207,21.207,0,0,1,10.076,42.222Zm11.05,0H35.541c-1.6,6.416-4.511,10.556-7.208,10.556S22.726,48.638,21.126,42.222Zm18.786,0h6.671a21.149,21.149,0,0,1-9.937,8.84A30.11,30.11,0,0,0,39.912,42.222Z" transform="translate(0 0)" fill="#5b5b5b"/>
  </g>
</svg>
