<svg xmlns="http://www.w3.org/2000/svg" width="47.478" height="52" viewBox="0 0 47.478 52">
  <g id="surface1" transform="translate(-3 -1)" opacity="0.5">
    <path id="Path_5" data-name="Path 5" d="M3,1V37.174H7.522V5.522h27.13V1Zm9.043,9.043v40.7H30.13V30.391H45.957V10.043Zm12.435,4.522a3.391,3.391,0,1,1-3.391,3.391A3.392,3.392,0,0,1,24.478,14.565Zm0,9.043c1.89,0,5.652.945,5.652,2.826v1.7h-11.3v-1.7C18.826,24.554,22.588,23.609,24.478,23.609Zm10.174,11.3v4.522H50.478V34.913Zm0,6.783v4.522H50.478V41.7Zm0,6.783V53H50.478V48.478Z" transform="translate(0 0)" fill="#5b5b5b"/>
  </g>
</svg>
