<svg xmlns="http://www.w3.org/2000/svg" width="29.615" height="35" viewBox="0 0 29.615 35">
  <g id="svg-password" transform="translate(-2)" opacity="0.5">
    <path id="Path_12" data-name="Path 12" d="M16.808,0C13.2,0,10.34,1.12,8.52,3.155a10.939,10.939,0,0,0-2.482,7.488v1.472h4.038V10.643a7,7,0,0,1,1.43-4.8c.947-1.057,2.471-1.809,5.3-1.809s4.359.72,5.3,1.767a7.088,7.088,0,0,1,1.43,4.838v1.472h4.038V10.643A10.987,10.987,0,0,0,25.1,3.113C23.27,1.083,20.41,0,16.808,0ZM6.038,13.462A4.04,4.04,0,0,0,2,17.5V30.962A4.039,4.039,0,0,0,6.038,35H27.577a4.039,4.039,0,0,0,4.038-4.038V17.5a4.04,4.04,0,0,0-4.038-4.038Zm2.692,8.077a2.692,2.692,0,1,1-2.692,2.692A2.691,2.691,0,0,1,8.731,21.538Zm8.077,0a2.692,2.692,0,1,1-2.692,2.692A2.691,2.691,0,0,1,16.808,21.538Zm8.077,0a2.692,2.692,0,1,1-2.692,2.692A2.691,2.691,0,0,1,24.885,21.538Z" fill="#5b5b5b"/>
  </g>
</svg>
