<svg xmlns="http://www.w3.org/2000/svg" width="41" height="31.16" viewBox="0 0 41 31.16">
  <g id="surface1" transform="translate(0 -7)" opacity="0.51">
    <path id="Path_11" data-name="Path 11" d="M38.54,10.28H21.32V9.46A2.465,2.465,0,0,0,18.86,7H2.46A2.465,2.465,0,0,0,0,9.46V35.7a2.465,2.465,0,0,0,2.46,2.46H7.38V35.7h3.28v2.46H30.34V35.7h3.28v2.46h4.92A2.465,2.465,0,0,0,41,35.7V12.74A2.465,2.465,0,0,0,38.54,10.28ZM4.92,29.14c.17-2.934,4.087-2.508,4.632-4.03.045-.522.029-.884.029-1.361a2.674,2.674,0,0,1-.717-1.579c-.179-.013-.458-.2-.541-.91a.678.678,0,0,1,.237-.666c-.6-2.415-.272-4.523,2.482-4.574a1.545,1.545,0,0,1,1.422.57c2.012.288,1.406,3.1,1.118,4a.682.682,0,0,1,.237.666c-.08.718-.362.9-.541.913a2.717,2.717,0,0,1-.7,1.579c0,.474-.016.836.029,1.358.545,1.522,4.446,1.1,4.616,4.03Zm31.16,0H21.32V27.5H36.08Zm0-4.1H21.32V23.4H36.08Zm0-4.1H21.32V19.3H36.08Z" fill="#5b5b5b"/>
  </g>
</svg>
