<svg xmlns="http://www.w3.org/2000/svg" width="49.781" height="45.156" viewBox="0 0 49.781 45.156">
  <g id="svg-paymentmethod" transform="translate(-0.219 -0.844)" opacity="0.5">
    <path id="Path_16" data-name="Path 16" d="M42.719.844,32.656,3.531c-.012,0-.02,0-.031,0l-22.344,6c-.008,0-.023,0-.031,0L.219,12.219l2.344,8.688c.016.086.039.191.063.281L6,33.656V46H50V20H47.875Zm-8.969,4.5c1.313-.113,2.09.73,3.063,1.969a5.19,5.19,0,0,0,1.344,1.375,5.836,5.836,0,0,0,2.25.5c1.5.156,2.57.316,2.781,1.094L45.781,20H32.906a10.1,10.1,0,0,0-.344-3C31.277,12.2,26.77,9.262,22.5,10.406c-3.926,1.051-6.273,5.2-5.625,9.594H6v6L4.531,20.563c-.117-.738.707-1.4,1.875-2.25A5.632,5.632,0,0,0,8.063,16.75a5.1,5.1,0,0,0,.5-1.844c.254-1.777.563-2.984,2.25-3.437l22.344-6A3.3,3.3,0,0,1,33.75,5.344Zm5.219,7.969a2.5,2.5,0,1,0,2.5,2.5A2.5,2.5,0,0,0,38.969,13.313ZM16.438,22H39.563c1.746,0,2.355,1.1,3.063,2.75a5.114,5.114,0,0,0,.938,1.656,5.742,5.742,0,0,0,2.031,1.063C47,28.008,48,28.441,48,29.25v10c0,.363-.66.66-1.469.969A4.327,4.327,0,0,0,45,41.031a3.871,3.871,0,0,0-.719,1.25c-.5,1.168-.848,1.719-1.844,1.719H13.563c-1,0-1.344-.555-1.844-1.719A3.872,3.872,0,0,0,11,41.031a4.327,4.327,0,0,0-1.531-.812C8.66,39.91,8,39.613,8,39.25V33.5h.031L8,33.375V29.25c0-.809,1-1.242,2.406-1.781a5.806,5.806,0,0,0,2.031-1.062,5.073,5.073,0,0,0,.938-1.656C14.082,23.1,14.691,22,16.438,22ZM28,24c-4.418,0-8,4.031-8,9s3.582,9,8,9,8-4.031,8-9S32.418,24,28,24ZM13.5,31A2.5,2.5,0,1,0,16,33.5,2.5,2.5,0,0,0,13.5,31Zm29,0A2.5,2.5,0,1,0,45,33.5,2.5,2.5,0,0,0,42.5,31Z" fill="#5b5b5b"/>
  </g>
</svg>
